<svg width="34" height="41" viewBox="0 0 34 41" fill="none" xmlns="http://www.w3.org/2000/svg">
<rect width="34" height="41" rx="8" fill="#39DB4A"/>
<path d="M23.85 8.07812C24.3713 8.07812 24.7567 8.10079 25.006 8.14613C25.278 8.16879 25.5727 8.27079 25.89 8.45212C26.23 8.63346 26.468 8.93946 26.604 9.37012C26.74 9.80079 26.808 10.3788 26.808 11.1041C26.808 11.8295 26.74 12.4075 26.604 12.8381C26.468 13.2688 26.23 13.5748 25.89 13.7561C25.55 13.9148 25.244 14.0168 24.972 14.0621C24.7227 14.0848 24.326 14.0961 23.782 14.0961H13.378V17.5301H20.076C20.62 17.5301 21.0167 17.5528 21.266 17.5981C21.538 17.6208 21.844 17.7228 22.184 17.9041C22.7733 18.2441 23.068 19.1395 23.068 20.5901C23.068 22.1768 22.6373 23.1175 21.776 23.4121C21.4133 23.5255 20.8353 23.5821 20.042 23.5821H13.378V30.0081C13.378 30.5521 13.3553 30.9488 13.31 31.1981C13.2873 31.4475 13.2725 31.7277 13 32.0001C12.9054 32.0947 11.7692 32.0001 11.352 32.0001C9.76532 32.0001 8.83599 31.5695 8.56399 30.7081C8.42799 30.3455 8.35999 29.7675 8.35999 28.9741V12.0701C8.35999 10.9141 8.57532 10.1321 9.00599 9.72412C9.43665 9.29346 10.2527 9.07812 11.454 9.07812L23.85 8.07812Z" fill="white"/>
</svg>
